<svg width="20" height="20" viewBox="0 0 20 20" fill="none" xmlns="http://www.w3.org/2000/svg">
<path d="M2.15575 2.85156H5.41907V6.9416H2.15575V2.85156Z" fill="#009E83"/>
<path d="M5.0425 5.92163C6.63679 5.92163 7.92921 4.6292 7.92921 3.03491C7.92921 1.44062 6.63679 0.148193 5.0425 0.148193C3.4482 0.148193 2.15578 1.44062 2.15578 3.03491C2.15578 4.6292 3.4482 5.92163 5.0425 5.92163Z" fill="#009E83"/>
<path d="M17.1802 16.6974H5.55282C4.75032 16.6974 4.09973 16.0469 4.09973 15.2443V1.61105C4.09973 0.808545 4.13895 0.157959 4.94149 0.157959H16.7161C17.775 0.157959 18.6333 1.01632 18.6333 2.07515V15.2443C18.6333 16.0469 17.9827 16.6974 17.1802 16.6974Z" fill="#009E83"/>
<path d="M17.8098 2.65421C17.8098 1.79515 16.9993 1.0928 15.9754 1.03952V1.03589H5.0425C4.24535 1.03589 3.59914 1.53073 3.59914 2.14112C3.59914 2.75151 4.24535 3.24636 5.0425 3.24636V3.2653H12.9644V18.5376L15.8505 18.8764C16.9713 18.8764 17.8098 16.6586 17.8098 15.5634V2.73116H17.8075C17.8089 2.70565 17.8098 2.68003 17.8098 2.65421Z" fill="#DCE2E2"/>
<path d="M15.2569 19.8046H3.58816C2.79707 19.8046 2.15578 19.1633 2.15578 18.3722V4.69752C2.15578 3.90643 4.25144 3.26514 5.0425 3.26514H15.2569C16.048 3.26514 16.6893 3.90643 16.6893 4.69752V18.3722C16.6893 19.1633 16.048 19.8046 15.2569 19.8046Z" fill="#00B89C"/>
<path d="M5.12633 19.8046H3.53911C2.77512 19.8046 2.15575 19.1853 2.15575 18.4212V3.26514H5.12629L5.12633 19.8046Z" fill="#009E83"/>
<path d="M13.027 9.39048H7.83383C7.52317 9.39048 7.27133 9.13864 7.27133 8.82798V6.87036C7.27133 6.5597 7.52317 6.30786 7.83383 6.30786H13.027C13.3376 6.30786 13.5895 6.5597 13.5895 6.87036V8.82798C13.5895 9.13864 13.3376 9.39048 13.027 9.39048Z" fill="#2B3B47"/>
</svg>
