<svg width="20" height="20" viewBox="0 0 20 20" fill="none" xmlns="http://www.w3.org/2000/svg">
<path d="M19.6307 18.125H19.6319L19.6298 18.1196C19.6233 18.0867 19.6134 18.0546 19.6003 18.0237L18.0409 12.9287C18.4517 11.8839 18.6775 10.746 18.6775 9.55514C18.6775 4.46697 14.5577 0.342285 9.47566 0.342285C4.39367 0.342285 0.273865 4.46709 0.273865 9.55525C0.273865 14.6434 4.39367 18.7682 9.47566 18.7682C11.1602 18.7682 12.7387 18.3146 14.0968 17.5234L18.9727 18.6914C19.0052 18.703 19.0385 18.7106 19.0723 18.7153L19.0788 18.7165C19.0788 18.7165 19.0789 18.7161 19.0788 18.7158C19.157 18.7256 19.2364 18.7168 19.3105 18.69C19.3846 18.6633 19.4513 18.6194 19.5052 18.5619C19.6189 18.4407 19.6592 18.2813 19.6307 18.125Z" fill="#E3E2DD"/>
</svg>
