<svg width="20" height="20" viewBox="0 0 20 20" fill="none" xmlns="http://www.w3.org/2000/svg">
<g clip-path="url(#clip0_66_7)">
<path d="M9.99558 18.9163C5.07109 18.9163 1.0648 14.9098 1.0648 9.98531C1.0648 5.06082 5.07109 1.05469 9.99558 1.05469C14.9201 1.05469 18.9264 5.06086 18.9264 9.98535C18.9264 14.9098 14.92 18.9163 9.99558 18.9163Z" fill="#E5E4DF"/>
<path d="M9.99559 1.74219C14.5409 1.74219 18.2388 5.44008 18.2388 9.98535C18.2388 14.5306 14.5409 18.2285 9.99559 18.2285C5.45028 18.2285 1.75243 14.5306 1.75243 9.98535C1.75243 5.44008 5.45028 1.74219 9.99559 1.74219ZM9.99559 0.0712891C4.5202 0.0712891 0.0815277 4.50996 0.0815277 9.98535C0.0815277 15.4607 4.5202 19.8994 9.99559 19.8994C15.471 19.8994 19.9097 15.4607 19.9097 9.98535C19.9097 4.50996 15.471 0.0712891 9.99559 0.0712891Z" fill="#FF473E"/>
<path d="M9.99559 10.7228C9.59649 10.7228 9.27293 10.3992 9.27293 10.0001V3.59424C9.27293 3.19514 9.59649 2.87158 9.99559 2.87158C10.3947 2.87158 10.7182 3.19514 10.7182 3.59424V10.0001C10.7182 10.3992 10.3947 10.7228 9.99559 10.7228Z" fill="#3A5D66"/>
<path d="M14.8672 7.17086C14.6675 6.82531 14.2255 6.70691 13.8799 6.90664L10.2731 8.99047C10.1828 8.96527 10.0894 8.95248 9.99563 8.95246C9.42516 8.95246 8.96274 9.41492 8.96274 9.98535C8.96274 10.5558 9.4252 11.0182 9.99563 11.0182C10.4776 11.0182 10.8824 10.6882 10.9964 10.2417L14.603 8.15804C14.9485 7.95843 15.0668 7.51644 14.8672 7.17086Z" fill="#183F4C"/>
</g>
<defs>
<clipPath id="clip0_66_7">
<rect width="20" height="20" fill="white"/>
</clipPath>
</defs>
</svg>
