<svg width="20" height="20" viewBox="0 0 20 20" fill="none" xmlns="http://www.w3.org/2000/svg">
<g clip-path="url(#clip0_66_68)">
<path d="M2.68676 2.6868C5.17605 0.1975 9.21199 0.1975 11.7013 2.6868C13.9793 4.96484 14.1721 8.53797 12.2807 11.0359L13.2618 12.017L12.0169 13.2619L11.0358 12.2808C8.53789 14.1722 4.96476 13.9794 2.68672 11.7013C0.197459 9.21199 0.197459 5.17609 2.68676 2.6868Z" fill="#005189"/>
<path d="M7.19402 12.3923C10.0649 12.3923 12.3922 10.0649 12.3922 7.19405C12.3922 4.32316 10.0649 1.99585 7.19402 1.99585C4.32313 1.99585 1.99582 4.32316 1.99582 7.19405C1.99582 10.0649 4.32313 12.3923 7.19402 12.3923Z" fill="#70C4EA"/>
<path d="M3.68843 10.2819C5.71847 12.312 9.0098 12.312 11.0398 10.2819C11.6012 9.7205 12.0067 9.06237 12.2575 8.36132C12.0525 9.29991 11.5865 10.1929 10.8568 10.9227C8.82671 12.9527 5.53539 12.9527 3.50535 10.9227C2.03675 9.45409 1.63136 7.32562 2.28761 5.49194C1.92222 7.16421 2.38816 8.98167 3.68843 10.2819Z" fill="#00A7E0"/>
<path d="M18.5293 18.5293C19.1263 17.9323 19.3546 17.1838 19.0368 16.8659L13.4877 11.7712C13.1698 11.4534 12.6485 11.4546 12.0516 12.0516C11.4546 12.6485 11.4534 13.1698 11.7712 13.4876L16.8659 19.0368C17.1838 19.3546 17.9323 19.1262 18.5293 18.5293Z" fill="#1F356B"/>
<path d="M17.9232 15.8435L15.8436 17.9232L13.3348 15.1906L15.1907 13.3347L17.9232 15.8435Z" fill="#5BC0A4"/>
</g>
<defs>
<clipPath id="clip0_66_68">
<rect width="20" height="20" fill="white"/>
</clipPath>
</defs>
</svg>
