<svg width="60" height="60" viewBox="0 0 60 60" fill="none" xmlns="http://www.w3.org/2000/svg">
<path d="M5.955 13.9587V15.8571C5.955 15.8571 4.34871 15.7597 4.34871 13.9587H5.955ZM6.69633 13.9587C6.69633 15.7597 8.30262 15.8571 8.30262 15.8571V13.9587H6.69633Z" fill="#D5D5D5"/>
<path d="M9.18621 16.6723C8.40844 15.8946 6.05555 15.9972 3.83578 18.2168C3.6625 18.3906 3.48232 18.5573 3.29566 18.7166C3.23324 18.734 3.1752 18.7644 3.12539 18.8058C3.06645 18.8549 3.02941 18.8554 2.99684 18.8515C2.77348 18.8256 2.44535 18.5271 2.02172 17.9645C1.99048 17.9223 1.95841 17.8808 1.92551 17.8399C1.88668 17.7931 1.83901 17.7543 1.78521 17.7259C1.73141 17.6975 1.67254 17.68 1.61196 17.6743C1.55138 17.6686 1.49028 17.6749 1.43214 17.6929C1.374 17.7108 1.31997 17.74 1.27313 17.7789C1.22628 17.8177 1.18754 17.8654 1.15912 17.9192C1.1307 17.973 1.11315 18.0318 1.10749 18.0924C1.10182 18.153 1.10813 18.2141 1.12608 18.2722C1.14402 18.3304 1.17324 18.3844 1.21207 18.4313C1.22859 18.4512 1.2518 18.4826 1.28145 18.5218C1.54523 18.8721 1.84488 19.2302 2.18391 19.4746C1.47539 19.8254 1.09231 19.7357 1.08598 19.7341C1.09688 19.737 1.10238 19.7393 1.10238 19.7393L0.799454 20.6152C0.842696 20.63 0.989063 20.6735 1.22906 20.6735C1.81195 20.6735 2.94621 20.417 4.49098 18.8722C6.41262 16.9504 8.24016 17.037 8.5309 17.3277C8.57393 17.3707 8.62502 17.4049 8.68125 17.4281C8.73748 17.4514 8.79774 17.4634 8.8586 17.4634C8.91945 17.4634 8.97971 17.4514 9.03594 17.4281C9.09216 17.4048 9.14324 17.3707 9.18627 17.3276C9.2293 17.2846 9.26343 17.2335 9.28671 17.1773C9.31 17.1211 9.32198 17.0608 9.32197 16.9999C9.32197 16.9391 9.30997 16.8788 9.28668 16.8226C9.26339 16.7664 9.22925 16.7153 9.18621 16.6723Z" fill="#FF4856"/>
<path d="M57.7072 42.7648C57.5607 41.6784 57.3441 40.7395 57.1059 39.9447C56.8702 39.1495 56.6307 38.494 56.417 37.9732C56.2023 37.4526 56.0251 37.0625 55.9014 36.8019L55.7104 36.4091C55.4888 35.9528 54.9729 35.6948 54.4593 35.818C53.8661 35.9602 53.5006 36.5565 53.6428 37.1497L53.6507 37.1823L53.7441 37.5713C53.8051 37.8274 53.8923 38.2076 53.9863 38.7035C54.0797 39.1991 54.1846 39.8092 54.2541 40.5237C54.2897 40.8808 54.3155 41.2633 54.3359 41.668C54.351 42.073 54.3543 42.5007 54.3361 42.9474C54.297 43.8398 54.1821 44.8099 53.9203 45.7976C53.6559 46.782 53.2399 47.7856 52.6323 48.6799C52.3282 49.1257 51.9797 49.5447 51.5857 49.9061C51.1929 50.2674 50.7577 50.5742 50.3075 50.7925C49.8588 51.0131 49.3928 51.1364 48.9798 51.1573C48.9279 51.1617 48.8774 51.1603 48.8272 51.161C48.8019 51.1625 48.7778 51.1587 48.7532 51.1585C48.732 51.1569 48.6955 51.1585 48.6927 51.1541C48.6834 51.1511 48.6737 51.149 48.664 51.1478L48.5274 51.1387L48.4498 51.1335C48.4199 51.1326 48.5513 51.1334 48.4888 51.1313L48.4725 51.1279L48.4077 51.1156C48.3213 51.0955 48.2361 51.0709 48.1524 51.0418C48.067 51.0096 47.9832 50.9734 47.9012 50.9333C47.5688 50.7684 47.2376 50.5009 46.9484 50.1322C46.6596 49.7648 46.4119 49.3031 46.2504 48.7746C46.0875 48.2471 46.0033 47.6581 46.0075 47.0369C46.0116 46.7257 46.0372 46.4067 46.0856 46.0823C46.1389 45.7493 46.21 45.4195 46.2988 45.0942C46.48 44.4264 46.7634 43.7504 47.1178 43.0747C47.2077 42.9039 47.3015 42.7352 47.3991 42.5687C47.4489 42.4872 47.5014 42.3951 47.5482 42.3219L47.6933 42.0943L47.8805 41.8099L48.1174 41.4387C48.2727 41.1882 48.4283 40.9362 48.576 40.6764C49.1699 39.6407 49.7073 38.5332 50.1485 37.346C50.5906 36.1598 50.9327 34.8918 51.1226 33.5542C51.3102 32.217 51.3483 30.8088 51.1582 29.371C50.9672 27.936 50.5499 26.4711 49.8285 25.0758C49.1087 23.6851 48.0803 22.3543 46.6725 21.3038C45.9703 20.7806 45.1731 20.3312 44.2942 20.0067C43.417 19.6817 42.4565 19.4858 41.4769 19.4615C40.498 19.435 39.5063 19.5836 38.5899 19.8819C37.6723 20.1789 36.8303 20.6176 36.1009 21.1333C35.3694 21.649 34.7398 22.2357 34.2013 22.8485C33.6598 23.4617 33.2082 24.1015 32.8145 24.747C32.034 26.0405 31.4934 27.3543 31.0802 28.6511C30.6684 29.9494 30.3877 31.2352 30.184 32.5054C29.98 33.7761 29.8604 35.0303 29.7904 36.2712C29.758 36.8909 29.7336 37.5087 29.727 38.1213C29.7211 38.4225 29.7223 38.7587 29.7219 39.0585L29.7257 39.4821L29.7268 39.8805C29.7233 40.8064 29.6405 41.6973 29.4793 42.5248C29.3155 43.3502 29.0708 44.111 28.7514 44.7624C28.4325 45.4142 28.0443 45.9563 27.6209 46.3642C27.1973 46.7714 26.7413 47.0449 26.3041 47.1898C25.8667 47.336 25.4525 47.3525 25.1135 47.2819C24.7713 47.2105 24.5091 47.0636 24.2849 46.8465C24.0614 46.6292 23.857 46.3195 23.7113 45.8641C23.5647 45.4134 23.4877 44.8287 23.5086 44.1739C23.5263 43.5196 23.6407 42.7991 23.8268 42.0653C23.9233 41.6905 24.0346 41.3197 24.1604 40.9537C24.2243 40.7674 24.2925 40.5809 24.3629 40.3946L24.4722 40.1151L24.575 39.8648L24.8543 39.2164L25.1586 38.4945C25.3552 38.0187 25.545 37.5401 25.7281 37.059C26.0846 36.1216 26.4166 35.1749 26.7234 34.2201C27.3265 32.3419 27.8177 30.4937 28.194 28.677C28.567 26.8599 28.8288 25.076 28.9576 23.3248C29.0854 21.5739 29.0827 19.8549 28.8954 18.1708C28.707 16.4896 28.331 14.833 27.672 13.2746C27.3429 12.4972 26.9424 11.7478 26.472 11.0551C26.0026 10.3623 25.4634 9.72874 24.8865 9.18171C24.311 8.63233 23.696 8.17553 23.0927 7.8037C22.5343 7.46162 21.9471 7.16887 21.3377 6.92878C20.2765 6.51182 19.3675 6.32092 18.6389 6.20608C17.62 5.81631 16.492 5.59003 15.3016 5.57198C10.6927 5.50237 3.54751 8.52592 2.97376 12.3383C2.96813 12.3761 2.96391 12.4141 2.9611 12.4523C2.87426 13.5885 3.82137 14.5403 4.9609 14.5319L9.71344 14.4967C10.1337 14.4936 10.3205 15.0228 9.99165 15.2844C8.642 16.3579 6.55079 18.1353 7.49942 18.1353C9.64055 18.1353 13.657 18.1201 15.1132 18.1258C17.0661 18.1335 18.8651 17.8395 20.2959 17.2076C20.4599 17.7447 20.594 18.3812 20.6762 19.1026C20.7994 20.1633 20.8166 21.3951 20.7227 22.7334C20.6297 24.0724 20.4266 25.5192 20.1213 27.0322C19.8186 28.5458 19.416 30.1284 18.9118 31.7431C18.6559 32.5637 18.3784 33.3773 18.0796 34.1833C17.9272 34.5943 17.7691 35.003 17.6053 35.4096L17.3535 36.0216L17.0645 36.713L16.8942 37.1412L16.7413 37.5473C16.6404 37.8229 16.5439 38.1001 16.452 38.3789C16.2624 38.9544 16.0959 39.5374 15.953 40.1262C15.6648 41.3321 15.4599 42.6215 15.4379 44.0128C15.4172 45.3991 15.5772 46.899 16.0969 48.429C16.3572 49.1914 16.7077 49.9576 17.1696 50.6894C17.6298 51.4207 18.1988 52.117 18.8678 52.7268C19.5433 53.3431 20.3034 53.8597 21.125 54.261C21.9484 54.6639 22.8286 54.9437 23.7203 55.0974C25.507 55.408 27.3275 55.2046 28.9473 54.6147C30.5727 54.027 31.9972 53.0609 33.1391 51.9098C34.2825 50.7556 35.1518 49.4258 35.7785 48.0592C36.407 46.69 36.8031 45.2859 37.045 43.9037C37.2823 42.5205 37.3678 41.1553 37.3446 39.8247L37.3274 38.9532C37.3256 38.6883 37.3216 38.4595 37.324 38.1956C37.3239 37.6776 37.3396 37.1646 37.3606 36.6539C37.4074 35.6344 37.4941 34.6291 37.6398 33.6608C37.7841 32.6926 37.9829 31.7574 38.247 30.8947C38.5093 30.0326 38.8404 29.2426 39.2207 28.5983C39.599 27.9551 40.0293 27.4707 40.3992 27.2065C40.584 27.0704 40.7502 26.9896 40.8963 26.938C41.0434 26.8874 41.1722 26.8666 41.3083 26.8662C41.4438 26.8666 41.5897 26.8893 41.7549 26.9465C41.9193 27.0035 42.101 27.0965 42.2868 27.2306C42.6595 27.4967 43.0372 27.9307 43.3269 28.4748C43.6195 29.0184 43.8279 29.6682 43.9299 30.3689C43.9847 30.7183 44.0083 31.0832 44.0132 31.454C44.0134 31.8335 43.9907 32.2127 43.9452 32.5894C43.8484 33.3573 43.6609 34.1401 43.3966 34.9168C43.1313 35.6934 42.7859 36.4621 42.3818 37.2104C42.2809 37.3983 42.1772 37.5847 42.0708 37.7695L41.6971 38.4086L41.4595 38.8344C41.3802 38.9792 41.3148 39.1095 41.2425 39.2477C41.1027 39.5224 40.9694 39.8004 40.8429 40.0815C40.3364 41.2082 39.9523 42.4035 39.7153 43.6381C39.4729 44.882 39.4075 46.1539 39.521 47.4161C39.5795 48.0512 39.6865 48.6808 39.8412 49.2996C40.0018 49.9184 40.2082 50.5257 40.4719 51.1112C40.9947 52.281 41.7252 53.3715 42.6681 54.2743C43.6062 55.1764 44.7592 55.8945 46.0336 56.2884C46.6681 56.4838 47.3252 56.5963 47.9886 56.6231L48.2347 56.6278L48.4127 56.6292L48.4903 56.6251L48.6634 56.616L48.9434 56.5982C49.0433 56.5919 49.1091 56.5817 49.1902 56.5727C49.2676 56.5627 49.3459 56.5551 49.4218 56.5419C49.5747 56.5177 49.7266 56.4925 49.8748 56.4598C51.0677 56.2103 52.0964 55.7125 52.9651 55.1233C53.837 54.5323 54.5515 53.8373 55.1399 53.1094C55.6998 52.4173 56.1762 51.6615 56.559 50.8577C57.2932 49.3331 57.6318 47.8249 57.7725 46.4587C57.8975 45.2292 57.8756 43.9892 57.7072 42.7648Z" fill="#00BC74"/>
<path d="M13.8987 8.2124C14.6514 8.2124 15.2616 8.8226 15.2616 9.57529V11.2506C15.2616 12.0033 14.6514 12.6135 13.8987 12.6135C13.146 12.6135 12.5358 12.0033 12.5358 11.2506V9.57529C12.5358 8.8226 13.146 8.2124 13.8987 8.2124Z" fill="#2C3C47"/>
<path d="M5.1518 12.8298C5.3736 12.8298 5.5534 12.65 5.5534 12.4282C5.5534 12.2064 5.3736 12.0266 5.1518 12.0266C4.93 12.0266 4.7502 12.2064 4.7502 12.4282C4.7502 12.65 4.93 12.8298 5.1518 12.8298Z" fill="#2C3C47"/>
</svg>
