<svg width="60" height="60" viewBox="0 0 60 60" fill="none" xmlns="http://www.w3.org/2000/svg">
<g clip-path="url(#clip0_49_20)">
<path d="M55.8333 15.5833C49.5 8.16664 38.4166 7.74997 31.6666 14.5C30.75 15.4166 29.25 15.4166 28.3333 14.5C21.9166 8.0833 11.5833 8.0833 5.0833 14.4166C-0.416695 19.8333 -1.25003 28.5833 2.91664 35.0833C4.24997 37.0833 5.91664 38.6666 7.66664 39.8333L28.75 56.9166C29.5 57.5 30.5833 57.5 31.3333 56.9166L52.3333 39.8333C54.0833 38.6666 55.6666 37.1666 57 35.1666C61 29.25 60.5 21.0833 55.8333 15.5833Z" fill="#FF473E"/>
<path d="M6.9167 28.4167H6.6667C5.1667 28.3334 4.00003 27.0001 4.1667 25.4167C4.58336 20.0001 8.4167 15.6667 13.75 14.4167C15.25 14.0834 16.6667 15.0001 17 16.5001C17.3334 18.0001 16.4167 19.4167 14.9167 19.7501C12 20.4167 9.9167 22.8334 9.6667 25.8334C9.50003 27.3334 8.33336 28.4167 6.9167 28.4167Z" fill="#FF6E83"/>
<path d="M7.41669 44.3333C9.75002 44.9167 11.5 46.75 12.0834 49C12.1667 49.25 12.4167 49.25 12.5 49C13.0834 46.6667 14.9167 44.9167 17.1667 44.3333C17.4167 44.25 17.4167 44 17.1667 43.9167C14.8334 43.3333 13.0834 41.5 12.5 39.25C12.4167 39 12.1667 39 12.0834 39.25C11.5 41.5833 9.66669 43.3333 7.41669 43.9167C7.16669 44 7.16669 44.25 7.41669 44.3333Z" fill="#FFC7EF"/>
<path d="M46.8334 15.0001C49.8334 15.7501 52.1667 18.0834 52.9167 21.0834C53 21.3334 53.3334 21.3334 53.4167 21.0834C54.1667 18.0834 56.5 15.7501 59.5 15.0001C59.75 14.9167 59.75 14.5834 59.5 14.5001C56.5 13.7501 54.1667 11.4167 53.4167 8.41675C53.3334 8.16675 53 8.16675 52.9167 8.41675C52.1667 11.4167 49.8334 13.7501 46.8334 14.5001C46.5834 14.5001 46.5834 14.9167 46.8334 15.0001Z" fill="#FFC7EF"/>
</g>
<defs>
<clipPath id="clip0_49_20">
<rect width="60" height="60" fill="white"/>
</clipPath>
</defs>
</svg>
