<svg width="60" height="60" viewBox="0 0 60 60" fill="none" xmlns="http://www.w3.org/2000/svg">
<path d="M56.725 9.74121H21.9141C15.1172 9.74121 11.9722 19.2957 11.9722 19.2957C11.9722 20.4697 17.4705 19.4505 18.5824 19.4505H56.725C57.8368 19.4505 58.7382 18.4989 58.7382 17.3249V11.867C58.7382 10.6929 57.8368 9.74121 56.725 9.74121Z" fill="#9BA5A8"/>
<path d="M1.21771 44.3016V30.9586C1.21771 26.824 11.5293 17.0624 13.7727 14.9877C14.0451 14.7357 14.4026 14.5957 14.7737 14.5957H56.0156C58.8044 14.5957 58.9844 14.5836 58.9844 16.9999V44.3016C58.9844 46.718 56.7236 48.6768 53.9349 48.6768H6.2672C3.47849 48.6768 1.21771 46.718 1.21771 44.3016Z" fill="#DEE1E2"/>
<path d="M5.81873 48.5685C5.81873 44.5914 9.0429 41.3672 13.02 41.3672C16.9971 41.3672 20.2213 44.5914 20.2213 48.5685M52.7984 48.5685C52.7984 44.5914 49.5742 41.3672 45.5971 41.3672C41.62 41.3672 38.3958 44.5914 38.3958 48.5685" fill="#9BA5A8"/>
<path d="M18.2793 48.5686C18.2793 51.4732 15.9246 53.8278 13.02 53.8278C10.1154 53.8278 7.76074 51.4732 7.76074 48.5686C7.76074 45.664 10.1154 43.3093 13.02 43.3093C15.9246 43.3093 18.2793 45.664 18.2793 48.5686ZM45.5971 43.3093C42.6925 43.3093 40.3378 45.664 40.3378 48.5686C40.3378 51.4732 42.6925 53.8278 45.5971 53.8278C48.5017 53.8278 50.8563 51.4732 50.8563 48.5686C50.8563 45.664 48.5017 43.3093 45.5971 43.3093Z" fill="#2B3B47"/>
<path d="M1.21771 35.5654H58.9844V40.208H1.21771V35.5654Z" fill="#597B91"/>
<path d="M15.4166 48.5685C15.4166 49.8921 14.3436 50.9651 13.02 50.9651C11.6964 50.9651 10.6234 49.8921 10.6234 48.5685C10.6234 47.2448 11.6964 46.1719 13.02 46.1719C14.3436 46.1719 15.4166 47.2448 15.4166 48.5685ZM45.5971 46.1719C44.2735 46.1719 43.2005 47.2448 43.2005 48.5685C43.2005 49.8921 44.2735 50.9651 45.5971 50.9651C46.9207 50.9651 47.9937 49.8921 47.9937 48.5685C47.9937 47.2448 46.9207 46.1719 45.5971 46.1719Z" fill="#9BA5A8"/>
<path d="M15.2145 19.2957H24.4806C24.6012 19.2956 24.7206 19.3194 24.8319 19.3655C24.9433 19.4116 25.0445 19.4793 25.1298 19.5645C25.2151 19.6498 25.2827 19.751 25.3288 19.8624C25.3749 19.9737 25.3987 20.0931 25.3987 20.2137V28.0786C25.3987 28.1992 25.3749 28.3186 25.3288 28.43C25.2827 28.5414 25.2151 28.6426 25.1298 28.7278C25.0445 28.8131 24.9433 28.8807 24.8319 28.9268C24.7206 28.9729 24.6012 28.9967 24.4806 28.9967H7.48127C6.60389 28.9967 6.22643 27.8839 6.92264 27.3501L12.8486 20.3887C13.1403 20.046 13.5029 19.7709 13.9114 19.5821C14.3199 19.3934 14.7645 19.2957 15.2145 19.2957ZM39.1406 27.3092V20.9832C39.1406 20.0512 38.3851 19.2957 37.4531 19.2957H30.75C29.818 19.2957 29.0625 20.0512 29.0625 20.9832V27.3092C29.0625 28.2412 29.818 28.9967 30.75 28.9967H37.4531C38.3851 28.9967 39.1406 28.2412 39.1406 27.3092ZM58.8727 19.2957H44.0883C43.1563 19.2957 42.4008 20.0512 42.4008 20.9832V27.3092C42.4008 28.2412 43.1563 28.9967 44.0883 28.9967H58.8727V19.2957Z" fill="#00B1FF"/>
<path d="M54.2343 13.1719H20.8895C20.6657 13.1719 20.4511 13.083 20.2928 12.9247C20.1346 12.7665 20.0457 12.5519 20.0457 12.3281C20.0457 12.1043 20.1346 11.8897 20.2928 11.7315C20.4511 11.5733 20.6657 11.4844 20.8895 11.4844H54.2343C54.4581 11.4844 54.6727 11.5733 54.831 11.7315C54.9892 11.8897 55.0781 12.1043 55.0781 12.3281C55.0781 12.5519 54.9892 12.7665 54.831 12.9247C54.6727 13.083 54.4581 13.1719 54.2343 13.1719Z" fill="#597B91"/>
</svg>
