<svg width="60" height="60" viewBox="0 0 60 60" fill="none" xmlns="http://www.w3.org/2000/svg">
<path d="M27.4216 22.2097H34.8517V33.2717H27.4216V22.2097Z" fill="#E5E4DF"/>
<path d="M44.1132 0.585938H18.1602C17.4791 0.585938 16.875 1.08328 16.875 1.76437V14.3395C16.875 14.5883 16.9765 14.8315 17.1171 15.0367L24.2156 25.3686C24.4454 25.7041 24.8392 25.8984 25.2456 25.8984H26.0289L31.2656 24.8952L36.2445 25.8984H37.0276C37.434 25.8984 37.8148 25.7041 38.0446 25.3686L45.1328 15.0336C45.2739 14.8284 45.3516 14.5883 45.3516 14.3395V1.76437C45.3516 1.08328 44.7939 0.585938 44.1132 0.585938Z" fill="#FF473E"/>
<path d="M26.0156 0.585938H36.2109V25.8984H26.0156V0.585938Z" fill="#C6C6C6"/>
<path d="M31.1366 59.1441C39.6488 59.1441 46.5492 52.2436 46.5492 43.7315C46.5492 35.2193 39.6488 28.3188 31.1366 28.3188C22.6245 28.3188 15.724 35.2193 15.724 43.7315C15.724 52.2436 22.6245 59.1441 31.1366 59.1441Z" fill="#FFD60D"/>
<path d="M13.0818 35.175C15.9818 35.9096 18.2646 38.1924 18.9993 41.0923C19.0699 41.3712 19.4289 41.3712 19.4996 41.0923C20.2342 38.1924 22.517 35.9096 25.4171 35.175C25.696 35.1044 25.696 34.7454 25.4171 34.6748C22.517 33.9401 20.2342 31.6571 19.4996 28.757C19.4289 28.4781 19.0699 28.4781 18.9993 28.757C18.2646 31.6571 15.9818 33.9401 13.0818 34.6748C12.8028 34.7454 12.8029 35.1044 13.0818 35.175Z" fill="#A4ECF4"/>
</svg>
