<svg width="60" height="60" viewBox="0 0 60 60" fill="none" xmlns="http://www.w3.org/2000/svg">
<path d="M22.6504 14.8782C11.7357 14.8782 2.88773 23.7368 2.88773 34.6647C2.88773 37.2223 3.37254 39.6665 4.25496 41.9104L0.905856 52.8535C0.877745 52.9221 0.85647 52.9934 0.842341 53.0662L0.838005 53.086H0.840466C0.779294 53.4375 0.865778 53.7558 1.11011 54.016C1.35422 54.2761 1.69699 54.3818 2.02582 54.3411C2.02558 54.3418 2.02582 54.3413 2.02582 54.3413L2.03965 54.338C2.11253 54.3281 2.18423 54.3108 2.25363 54.2865L12.7255 51.7778C15.6422 53.4772 19.0324 54.4511 22.6502 54.4511C33.5648 54.4511 42.4129 45.5923 42.4129 34.6646C42.4129 23.7368 33.565 14.8782 22.6504 14.8782Z" fill="#E3E2DD"/>
<path d="M59.0991 42.3061L59.0967 42.2934C59.0878 42.2271 59.0722 42.1618 59.0501 42.0987L56.767 32.5679C58.3137 29.9134 59.2002 26.8279 59.2002 23.5352C59.2002 13.6016 51.1377 5.54883 41.1921 5.54883C31.2465 5.54883 23.184 13.6016 23.184 23.5352C23.184 33.4689 31.2465 41.5216 41.1921 41.5216C43.5198 41.5216 45.7444 41.0804 47.7865 40.2773L57.7461 43.3254C57.8073 43.3513 57.8419 43.3702 57.9062 43.3832L57.8906 43.3873V43.3849C58.2422 43.4406 58.5337 43.3618 58.7706 43.1395C59.0074 42.9173 59.1203 42.6054 59.0832 42.3061C59.0839 42.3063 59.0991 42.3061 59.0991 42.3061Z" fill="#6B8DA1"/>
</svg>
