<svg width="60" height="60" viewBox="0 0 60 60" fill="none" xmlns="http://www.w3.org/2000/svg">
<g clip-path="url(#clip0_49_2)">
<path d="M48.5779 40.0239V40.0243C48.5779 45.9488 40.5495 50.7517 30.6458 50.7517C22.0841 50.7517 14.9261 47.1618 13.143 42.3612L12.3655 42.1744V40.8277L12.0172 40.6714C11.2237 40.3154 11.2237 39.7327 12.0172 39.3767L12.3655 39.2204V27.2769L23.1675 30.2722C25.4438 29.6464 27.9764 29.2969 30.6458 29.2969C33.4804 29.2969 36.1605 29.6909 38.5437 30.3915L48.5779 27.98V40.0239Z" fill="#132028"/>
<path d="M14.3663 45.5969L14.9701 52.1698C15.0846 53.4159 14.1673 54.5188 12.9211 54.6333C11.6749 54.7478 10.5721 53.8305 10.4576 52.5843C10.4457 52.4464 10.4457 52.3077 10.4576 52.1697L11.0615 45.5968C11.1452 44.6841 11.953 44.0123 12.8657 44.0962C13.6752 44.1706 14.2951 44.8154 14.3663 45.5969Z" fill="#FFB636"/>
<path d="M27.6921 40.4982L1.23295 25.8127C-0.0363086 25.1082 -0.0363086 23.9554 1.23295 23.2509L27.6921 8.56551C28.9614 7.86098 31.0385 7.86098 32.3078 8.56551L58.767 23.251C60.0362 23.9555 60.0362 25.1083 58.767 25.8128L32.3079 40.4982C31.0385 41.2027 28.9615 41.2027 27.6921 40.4982Z" fill="#464A4C"/>
<path d="M12.7139 46.3855C10.8364 46.3855 9.31421 44.8633 9.31421 42.9856V42.1064C9.31421 40.2288 10.8364 38.7065 12.7139 38.7065C14.5915 38.7065 16.1137 40.2287 16.1137 42.1064V42.9856C16.1137 44.8633 14.5915 46.3855 12.7139 46.3855Z" fill="#FFD592"/>
<path d="M12.7139 43.2259C11.7375 43.2259 10.946 42.4344 10.946 41.458V33.4153C10.946 32.7871 11.2796 32.206 11.822 31.889L29.1081 21.7881C29.9512 21.2956 31.0339 21.5796 31.5265 22.4227C32.0191 23.2656 31.735 24.3484 30.8921 24.841L14.4818 34.43V41.4582C14.4818 42.4344 13.6902 43.2259 12.7139 43.2259Z" fill="#FFB636"/>
<path d="M34.0233 23.3145C34.0233 24.8739 32.222 26.138 30 26.138C27.778 26.138 25.9767 24.8739 25.9767 23.3145C25.9767 21.7551 27.778 20.491 30 20.491C32.222 20.491 34.0233 21.7551 34.0233 23.3145Z" fill="#132028"/>
</g>
<defs>
<clipPath id="clip0_49_2">
<rect width="60" height="60" fill="white"/>
</clipPath>
</defs>
</svg>
